<svg xmlns="http://www.w3.org/2000/svg" width="390" height="1600" viewBox="0 0 390 1600">
  <defs>
    <style>
      .bg{fill:#0b1a2c}.card{fill:#0f2030}.ghost{fill:#122335;stroke:#3a5f7c;stroke-width:2}
      .text{fill:#e7f1f7;font-family:Inter,Segoe UI,Arial,sans-serif}
      .muted{fill:#9fb0c3}.label{font-size:15px}.small{font-size:12px;font-weight:400}
    </style>
  </defs>
  <rect class="bg" x="0" y="0" width="390" height="1600" rx="14"/>
  <rect class="card" x="12" y="14" width="366" height="56" rx="10"/>
  <text class="text label" x="24" y="48">Navbar</text>

  <rect class="card" x="12" y="86" width="366" height="140" rx="12"/>
  <circle cx="56" cy="156" r="34" class="ghost"/>
  <text class="text label" x="108" y="140">About Me</text>
  <text class="muted small" x="108" y="162">Short intro text…</text>

  <text class="text label" x="12" y="260">Design Sketches</text>
  <g transform="translate(12,276)">
    <rect class="card" x="0" y="0" width="366" height="150" rx="10"/>
    <rect class="ghost" x="10" y="10" width="346" height="100" rx="6"/>
    <text class="muted small" x="14" y="132">Sketch 1</text>

    <rect class="card" x="0" y="170" width="366" height="150" rx="10"/>
    <rect class="ghost" x="10" y="180" width="346" height="100" rx="6"/>
    <text class="muted small" x="14" y="302">Sketch 2</text>

    <rect class="card" x="0" y="340" width="366" height="150" rx="10"/>
    <rect class="ghost" x="10" y="350" width="346" height="100" rx="6"/>
    <text class="muted small" x="14" y="472">Plot</text>

    <rect class="card" x="0" y="510" width="366" height="150" rx="10"/>
    <rect class="ghost" x="10" y="520" width="346" height="100" rx="6"/>
    <text class="muted small" x="14" y="642">Portfolio sketch</text>
  </g>

  <text class="text label" x="12" y="990">Projects</text>
  <g transform="translate(12,1006)">
    <rect class="card" x="0" y="0" width="366" height="190" rx="12"/>
    <rect class="ghost" x="10" y="10" width="346" height="110" rx="8"/>
    <text class="text label" x="14" y="144">Gravity‑Powered Car</text>
    <text class="muted small" x="14" y="166">Prototype + sketches</text>

    <rect class="card" x="0" y="210" width="366" height="190" rx="12"/>
    <rect class="ghost" x="10" y="220" width="346" height="110" rx="8"/>
    <text class="text label" x="14" y="354">Flight Path Simulation</text>

    <rect class="card" x="0" y="420" width="366" height="190" rx="12"/>
    <rect class="ghost" x="10" y="430" width="346" height="110" rx="8"/>
    <text class="text label" x="14" y="564">Responsive Portfolio</text>
  </g>

  <text class="muted small" x="12" y="1580">Home (mobile) wireframe — single column; enlarged tap targets.</text>
</svg>
