<svg xmlns="http://www.w3.org/2000/svg" width="420" height="900" viewBox="0 0 420 900">
  <defs>
    <pattern id="grid-m" width="26" height="26" patternUnits="userSpaceOnUse">
      <rect width="26" height="26" fill="#fffdf7"/>
      <path d="M26 0H0V26" fill="none" stroke="#ece7d9" stroke-width="1"/>
    </pattern>
    <filter id="rough-m" x="-5%" y="-5%" width="110%" height="110%">
      <feTurbulence type="fractalNoise" baseFrequency="1" numOctaves="1" seed="6" result="n"/>
      <feDisplacementMap in="SourceGraphic" in2="n" scale="1.3" xChannelSelector="R" yChannelSelector="G"/>
    </filter>
    <style>
      .paper{fill:url(#grid-m)}
      .p{fill:none;stroke:#2b2b2b;stroke-width:3;stroke-linecap:round;filter:url(#rough-m)}
      .pd{fill:none;stroke:#4a4a4a;stroke-width:2;stroke-dasharray:6 8;filter:url(#rough-m)}
      .note{fill:#1f1f1f;font:italic 16px "Segoe UI", Arial, sans-serif}
      .mark{fill:#ffe48a;opacity:.45}
      .chip{fill:#cfe8ff;opacity:.45}
      .title{fill:#1f1f1f;font:700 20px "Segoe UI", Arial, sans-serif}
    </style>
  </defs>
  <rect class="paper" x="0" y="0" width="420" height="900"/>
  <text class="title" x="14" y="34">Sketch — Home (mobile)</text>

  <rect class="mark" x="12" y="48" width="396" height="56" rx="10"/>
  <path class="p" d="M14 50h392v52H14z"/>
  <text class="note" x="22" y="84">Burger, logo, simple nav</text>

  <rect class="chip" x="12" y="118" width="396" height="130" rx="12"/>
  <path class="p" d="M14 120h392v126H14z"/>
  <circle class="p" cx="54" cy="182" r="30"/>
  <path class="pd" d="M96 162h220M96 184h260M96 206h200"/>

  <text class="note" x="12" y="276">Sketches list (single column)</text>
  <g transform="translate(12,290)">
    <rect class="mark" x="0" y="0" width="396" height="120" rx="12"/>
    <path class="p" d="M6 6h384v108H6z"/>
    <rect class="mark" x="0" y="136" width="396" height="120" rx="12"/>
    <path class="p" d="M6 142h384v108H6z"/>
    <rect class="mark" x="0" y="272" width="396" height="120" rx="12"/>
    <path class="p" d="M6 278h384v108H6z"/>
  </g>

  <text class="note" x="12" y="560">Projects cards (stacked)</text>
  <g transform="translate(12,576)">
    <rect class="chip" x="0" y="0" width="396" height="160" rx="12"/>
    <path class="p" d="M6 6h384v148H6z"/>
    <path class="pd" d="M16 122h210M16 144h260"/>
    <rect class="chip" x="0" y="176" width="396" height="160" rx="12"/>
    <path class="p" d="M6 182h384v148H6z"/>
    <path class="pd" d="M16 298h210M16 320h260"/>
  </g>

  <text class="note" x="12" y="864">Note: larger tap targets and clear hierarchy.</text>
</svg>
