<svg xmlns="http://www.w3.org/2000/svg" width="420" height="900" viewBox="0 0 420 900">
  <defs>
    <!-- grid paper -->
    <pattern id="grid-m" width="26" height="26" patternUnits="userSpaceOnUse">
      <rect width="26" height="26" fill="#fffdf7"/>
      <path d="M26 0H0V26" fill="none" stroke="#ece7d9" stroke-width="1"/>
    </pattern>
    <!-- rough pencil -->
    <filter id="rough-m" x="-5%" y="-5%" width="110%" height="110%">
      <feTurbulence type="fractalNoise" baseFrequency="1" numOctaves="1" seed="6" result="n"/>
      <feDisplacementMap in="SourceGraphic" in2="n" scale="1.3" xChannelSelector="R" yChannelSelector="G"/>
    </filter>
    <style>
      .paper{fill:url(#grid-m)}
      .p{fill:none;stroke:#2b2b2b;stroke-width:3;stroke-linecap:round;filter:url(#rough-m)}
      .pd{fill:none;stroke:#4a4a4a;stroke-width:2;stroke-dasharray:6 8;filter:url(#rough-m)}
      .note{fill:#1f1f1f;font:italic 16px "Segoe UI", Arial, sans-serif}
      .mark{fill:#ffe48a;opacity:.45}
      .chip{fill:#cfe8ff;opacity:.45}
      .title{fill:#1f1f1f;font:700 20px "Segoe UI", Arial, sans-serif}
    </style>
  </defs>

  <rect class="paper" x="0" y="0" width="420" height="900"/>

  <!-- Title -->
  <text class="title" x="14" y="34">Sketch — Home (mobile)</text>

  <!-- Navbar -->
  <rect class="mark" x="12" y="56" width="396" height="56" rx="10"/>
  <path class="p" d="M14 58h392v52H14z"/>
  <text class="note" x="22" y="92">Burger, logo, simple nav</text>

  <!-- About / intro card -->
  <rect class="chip" x="12" y="128" width="396" height="130" rx="12"/>
  <path class="p" d="M14 130h392v126H14z"/>
  <circle class="p" cx="54" cy="192" r="30"/>
  <path class="pd" d="M96 172h220M96 194h260M96 216h200"/>

  <!-- Sketches list (single column) -->
  <text class="note" x="12" y="282">Sketches list (single column)</text>
  <g transform="translate(12,298)">
    <rect class="mark" x="0" y="0" width="396" height="120" rx="12"/>
    <path class="p" d="M6 6h384v108H6z"/>

    <rect class="mark" x="0" y="136" width="396" height="120" rx="12"/>
    <path class="p" d="M6 142h384v108H6z"/>

    <rect class="mark" x="0" y="272" width="396" height="120" rx="12"/>
    <path class="p" d="M6 278h384v108H6z"/>
  </g>
  <!-- Bottom of sketches group ends at 298 + 272 + 120 = 690 -->

  <!-- Projects cards (stacked) — moved down to avoid overlap -->
  <text class="note" x="12" y="724">Projects cards (stacked)</text>
  <g transform="translate(12,740)">
    <rect class="chip" x="0" y="0" width="396" height="120" rx="12"/>
    <path class="p" d="M6 6h384v108H6z"/>
    <path class="pd" d="M16 88h210M16 108h260"/>

    <rect class="chip" x="0" y="136" width="396" height="120" rx="12"/>
    <path class="p" d="M6 142h384v108H6z"/>
    <path class="pd" d="M16 218h210M16 238h260"/>
  </g>
  <!-- Bottom of projects group ends at 740 + 136 + 120 = 996 (outside viewBox is OK when used as an image; if you prefer, increase SVG height) -->

  <!-- Footer note -->
  <text class="note" x="12" y="888">Note: larger tap targets and clear hierarchy.</text>
</svg>
